<?xml version="1.0" encoding="us-ascii" standalone="no"?><svg xmlns="http://www.w3.org/2000/svg" xmlns:xlink="http://www.w3.org/1999/xlink" contentStyleType="text/css" height="722px" preserveAspectRatio="none" style="width:956px;height:722px;background:#FFFFFF;" version="1.1" viewBox="0 0 956 722" width="956px" zoomAndPan="magnify"><defs/><g><text fill="#000000" font-family="sans-serif" font-size="14" font-weight="bold" lengthAdjust="spacing" textLength="90" x="426" y="22.9951">&#22270;&#20070;&#31649;&#29702;&#31995;&#32479;</text><g id="elem_Output"><ellipse cx="651.3142" cy="59.0597" fill="#F1F1F1" rx="66.8142" ry="15.7628" style="stroke:#181818;stroke-width:0.5;"/><text fill="#000000" font-family="sans-serif" font-size="14" lengthAdjust="spacing" textLength="84" x="606.3142" y="62.8073">&#26174;&#31034;&#20070;&#31821;&#25968;&#25454;</text></g><g id="elem_Add"><ellipse cx="107.8142" cy="342.0597" fill="#F1F1F1" rx="66.8142" ry="15.7628" style="stroke:#181818;stroke-width:0.5;"/><text fill="#000000" font-family="sans-serif" font-size="14" lengthAdjust="spacing" textLength="84" x="62.8142" y="345.8073">&#22686;&#21152;&#20070;&#31821;&#25968;&#25454;</text></g><g id="elem_Change"><ellipse cx="361.3142" cy="223.0597" fill="#F1F1F1" rx="66.8142" ry="15.7628" style="stroke:#181818;stroke-width:0.5;"/><text fill="#000000" font-family="sans-serif" font-size="14" lengthAdjust="spacing" textLength="84" x="316.3142" y="226.8073">&#26356;&#25913;&#20070;&#31821;&#25968;&#25454;</text></g><g id="elem_BorrowOrReturn"><ellipse cx="651.5868" cy="130.5366" fill="#F1F1F1" rx="55.5868" ry="14.7397" style="stroke:#181818;stroke-width:0.5;"/><text fill="#000000" font-family="sans-serif" font-size="14" lengthAdjust="spacing" textLength="61" x="618.0868" y="134.2842">&#36824;&#20070;/&#20511;&#20070;</text></g><g id="elem_Delete"><ellipse cx="361.4431" cy="473.4855" fill="#F1F1F1" rx="91.4431" ry="20.6886" style="stroke:#181818;stroke-width:0.5;"/><text fill="#000000" font-family="sans-serif" font-size="14" lengthAdjust="spacing" textLength="145" x="288.9431" y="476.3322">&#21024;&#38500;&#65288;&#21333;&#19968;/&#25152;&#26377;&#65289;&#25968;&#25454;</text></g><g id="elem_Search"><ellipse cx="651.3142" cy="201.0597" fill="#F1F1F1" rx="66.8142" ry="15.7628" style="stroke:#181818;stroke-width:0.5;"/><text fill="#000000" font-family="sans-serif" font-size="14" lengthAdjust="spacing" textLength="84" x="606.3142" y="204.8073">&#26597;&#35810;&#20070;&#31821;&#25968;&#25454;</text></g><g id="elem_SaveBooks"><ellipse cx="107.7923" cy="416.0553" fill="#F1F1F1" rx="101.7923" ry="22.7585" style="stroke:#181818;stroke-width:0.5;"/><text fill="#000000" font-family="sans-serif" font-size="14" lengthAdjust="spacing" textLength="168" x="23.7923" y="418.902">&#20445;&#23384;&#20070;&#31821;&#25968;&#25454;&#65288;&#20219;&#24847;&#20301;&#32622;&#65289;</text></g><g id="elem_OutputUsers"><ellipse cx="651.3142" cy="272.0597" fill="#F1F1F1" rx="66.8142" ry="15.7628" style="stroke:#181818;stroke-width:0.5;"/><text fill="#000000" font-family="sans-serif" font-size="14" lengthAdjust="spacing" textLength="84" x="606.3142" y="275.8073">&#26174;&#31034;&#29992;&#25143;&#25968;&#25454;</text></g><g id="elem_AddUser"><ellipse cx="651.3142" cy="343.0597" fill="#F1F1F1" rx="66.8142" ry="15.7628" style="stroke:#181818;stroke-width:0.5;"/><text fill="#000000" font-family="sans-serif" font-size="14" lengthAdjust="spacing" textLength="84" x="606.3142" y="346.8073">&#22686;&#21152;&#29992;&#25143;&#25968;&#25454;</text></g><g id="elem_ChangeUser"><ellipse cx="651.3142" cy="414.0597" fill="#F1F1F1" rx="66.8142" ry="15.7628" style="stroke:#181818;stroke-width:0.5;"/><text fill="#000000" font-family="sans-serif" font-size="14" lengthAdjust="spacing" textLength="84" x="606.3142" y="417.8073">&#26356;&#25913;&#29992;&#25143;&#25968;&#25454;</text></g><g id="elem_DeleteUser"><ellipse cx="651.3142" cy="485.0597" fill="#F1F1F1" rx="66.8142" ry="15.7628" style="stroke:#181818;stroke-width:0.5;"/><text fill="#000000" font-family="sans-serif" font-size="14" lengthAdjust="spacing" textLength="84" x="606.3142" y="488.8073">&#21024;&#38500;&#29992;&#25143;&#25968;&#25454;</text></g><g id="elem_SearchUsers"><ellipse cx="651.3142" cy="556.0597" fill="#F1F1F1" rx="66.8142" ry="15.7628" style="stroke:#181818;stroke-width:0.5;"/><text fill="#000000" font-family="sans-serif" font-size="14" lengthAdjust="spacing" textLength="84" x="606.3142" y="559.8073">&#26597;&#35810;&#29992;&#25143;&#25968;&#25454;</text></g><g id="elem_Reload"><ellipse cx="651.3543" cy="627.5053" fill="#F1F1F1" rx="51.8543" ry="14.7084" style="stroke:#181818;stroke-width:0.5;"/><text fill="#000000" font-family="sans-serif" font-size="14" lengthAdjust="spacing" textLength="56" x="620.3543" y="631.2528">&#37325;&#36733;&#25968;&#25454;</text></g><g id="elem_Opacity"><ellipse cx="651.3536" cy="698.1676" fill="#F1F1F1" rx="77.3536" ry="17.8707" style="stroke:#181818;stroke-width:0.5;"/><text fill="#000000" font-family="sans-serif" font-size="14" lengthAdjust="spacing" textLength="112" x="592.6333" y="701.8422">&#23458;&#25143;&#31471;&#33258;&#23450;&#20041;&#31649;&#29702;</text></g><!--entity Admin--><g id="elem_Admin"><ellipse cx="361.5" cy="349.7969" fill="#F1F1F1" rx="8" ry="8" style="stroke:#181818;stroke-width:0.5;"/><path d="M361.5,357.7969 L361.5,384.7969 M348.5,365.7969 L374.5,365.7969 M361.5,384.7969 L348.5,399.7969 M361.5,384.7969 L374.5,399.7969 " fill="none" style="stroke:#181818;stroke-width:0.5;"/><text fill="#000000" font-family="sans-serif" font-size="14" lengthAdjust="spacing" textLength="46" x="338.5" y="414.292">Admin</text></g><g id="elem_&#31649;&#29702;&#29992;&#25143;&#25968;&#25454;"><ellipse cx="361.3142" cy="290.0597" fill="#F1F1F1" rx="66.8142" ry="15.7628" style="stroke:#181818;stroke-width:0.5;"/><text fill="#000000" font-family="sans-serif" font-size="14" lengthAdjust="spacing" textLength="84" x="316.3142" y="293.8073">&#31649;&#29702;&#29992;&#25143;&#25968;&#25454;</text></g><!--entity Users--><g id="elem_Users"><ellipse cx="930" cy="349.7969" fill="#F1F1F1" rx="8" ry="8" style="stroke:#181818;stroke-width:0.5;"/><path d="M930,357.7969 L930,384.7969 M917,365.7969 L943,365.7969 M930,384.7969 L917,399.7969 M930,384.7969 L943,399.7969 " fill="none" style="stroke:#181818;stroke-width:0.5;"/><text fill="#000000" font-family="sans-serif" font-size="14" lengthAdjust="spacing" textLength="38" x="911" y="414.292">Users</text></g><!--link Admin to Output--><g id="link_Admin_Output"><path d="M384.881,369.8519 C404.737,360.5839 433.532,344.8559 453,324.2969 C531.338,241.5669 492.63,178.0469 574,98.2969 C585.179,87.3409 594.601,81.3073 608.263,75.0563 " fill="none" id="Admin-to-Output" style="stroke:#181818;stroke-width:2.0;"/><polygon fill="#181818" points="613.719,72.5599,603.8707,72.6671,609.1723,74.6402,607.1992,79.9418,613.719,72.5599" style="stroke:#181818;stroke-width:2.0;"/></g><!--link Admin to BorrowOrReturn--><g id="link_Admin_BorrowOrReturn"><path d="M384.849,368.6529 C404.154,358.8049 432.149,342.9039 453,324.2969 C518.468,265.8749 506.107,223.8829 574,168.2969 C587.31,157.3999 598.7709,150.9872 613.3349,144.5952 " fill="none" id="Admin-to-BorrowOrReturn" style="stroke:#181818;stroke-width:2.0;"/><polygon fill="#181818" points="618.829,142.1839,608.9802,142.1381,614.2506,144.1933,612.1953,149.4636,618.829,142.1839" style="stroke:#181818;stroke-width:2.0;"/></g><!--link Admin to Search--><g id="link_Admin_Search"><path d="M384.699,366.3629 C403.177,355.4639 430.074,339.2929 453,324.2969 C508,288.3219 517.52,272.9009 574,239.2969 C588.529,230.6529 599.8744,224.759 613.9964,218.01 " fill="none" id="Admin-to-Search" style="stroke:#181818;stroke-width:2.0;"/><polygon fill="#181818" points="619.41,215.4229,609.5649,215.6946,614.8987,217.5789,613.0145,222.9127,619.41,215.4229" style="stroke:#181818;stroke-width:2.0;"/></g><!--link Admin to OutputUsers--><g id="link_Admin_OutputUsers"><path d="M384.621,371.0789 C434.014,352.7269 548.0586,310.3565 608.5636,287.8775 " fill="none" id="Admin-to-OutputUsers" style="stroke:#181818;stroke-width:2.0;"/><polygon fill="#181818" points="614.188,285.7879,604.3584,285.1727,609.501,287.5292,607.1445,292.6718,614.188,285.7879" style="stroke:#181818;stroke-width:2.0;"/></g><!--link Admin to AddUser--><g id="link_Admin_AddUser"><path d="M384.621,376.5319 C428.482,371.0489 521.8053,359.3841 585.8593,351.3771 " fill="none" id="Admin-to-AddUser" style="stroke:#181818;stroke-width:2.0;"/><polygon fill="#181818" points="591.813,350.6329,582.3863,347.7801,586.8516,351.2531,583.3787,355.7183,591.813,350.6329" style="stroke:#181818;stroke-width:2.0;"/></g><!--link Admin to ChangeUser--><g id="link_Admin_ChangeUser"><path d="M384.621,381.9849 C428.416,387.3079 521.5048,398.62 585.5688,406.406 " fill="none" id="Admin-to-ChangeUser" style="stroke:#181818;stroke-width:2.0;"/><polygon fill="#181818" points="591.525,407.1299,583.0733,402.0733,586.5615,406.5266,582.1082,410.0148,591.525,407.1299" style="stroke:#181818;stroke-width:2.0;"/></g><!--link Admin to DeleteUser--><g id="link_Admin_DeleteUser"><path d="M384.621,387.4389 C434.014,405.6179 548.0523,447.5905 608.5573,469.8595 " fill="none" id="Admin-to-DeleteUser" style="stroke:#181818;stroke-width:2.0;"/><polygon fill="#181818" points="614.188,471.9319,607.1235,465.0694,609.4957,470.2049,604.3603,472.5771,614.188,471.9319" style="stroke:#181818;stroke-width:2.0;"/></g><!--link Admin to SearchUsers--><g id="link_Admin_SearchUsers"><path d="M384.649,392.5549 C403.098,403.7049 429.979,420.1989 453,435.2969 C507.743,471.1999 517.471,486.2769 574,519.2969 C588.268,527.6309 599.2547,533.2224 613.2197,539.7244 " fill="none" id="Admin-to-SearchUsers" style="stroke:#181818;stroke-width:2.0;"/><polygon fill="#181818" points="618.659,542.2569,612.1883,534.8319,614.1262,540.1464,608.8117,542.0843,618.659,542.2569" style="stroke:#181818;stroke-width:2.0;"/></g><!--link Admin to Reload--><g id="link_Admin_Reload"><path d="M384.821,390.2309 C404.107,400.3199 432.092,416.5469 453,435.2969 C518.063,493.6449 506.002,535.3969 574,590.2969 C587.315,601.0479 598.7501,607.3026 613.3131,613.4996 " fill="none" id="Admin-to-Reload" style="stroke:#181818;stroke-width:2.0;"/><polygon fill="#181818" points="618.834,615.8489,612.1188,608.6443,614.2332,613.8911,608.9864,616.0055,618.834,615.8489" style="stroke:#181818;stroke-width:2.0;"/></g><!--link Admin to Opacity--><g id="link_Admin_Opacity"><path d="M384.856,389.0229 C404.696,398.5339 433.481,414.5939 453,435.2969 C530.622,517.6269 493.043,580.2449 574,659.2969 C584.026,669.087 591.6056,674.3249 604.0156,680.3507 " fill="none" id="Admin-to-Opacity" style="stroke:#181818;stroke-width:2.0;"/><polygon fill="#181818" points="609.413,682.9715,603.0641,675.4421,604.9152,680.7875,599.5698,682.6386,609.413,682.9715" style="stroke:#181818;stroke-width:2.0;"/></g><!--reverse link ?????? to Admin--><g id="link_&#31649;&#29702;&#29992;&#25143;&#25968;&#25454;_Admin"><path d="M361.5,312.5549 C361.5,324.0549 361.5,329.5549 361.5,341.0549 " fill="none" id="&#31649;&#29702;&#29992;&#25143;&#25968;&#25454;-backto-Admin" style="stroke:#181818;stroke-width:1.0;"/><polygon fill="#181818" points="361.5,306.5549,357.5,315.5549,361.5,311.5549,365.5,315.5549,361.5,306.5549" style="stroke:#181818;stroke-width:1.0;"/></g><!--link Admin to Delete--><g id="link_Admin_Delete"><path d="M361.5,417.4499 C361.5,429.2119 361.5,434.9729 361.5,446.7349 " fill="none" id="Admin-to-Delete" style="stroke:#181818;stroke-width:1.0;"/><polygon fill="#181818" points="361.5,452.7349,365.5,443.7349,361.5,447.7349,357.5,443.7349,361.5,452.7349" style="stroke:#181818;stroke-width:1.0;"/></g><!--reverse link SaveBooks to Admin--><g id="link_SaveBooks_Admin"><path d="M199.7321,402.9485 C250.9271,395.4165 306.351,387.2629 338.453,382.5409 " fill="none" id="SaveBooks-backto-Admin" style="stroke:#181818;stroke-width:1.0;"/><polygon fill="#181818" points="193.796,403.8219,203.2824,406.4693,198.7427,403.0941,202.1179,398.5545,193.796,403.8219" style="stroke:#181818;stroke-width:1.0;"/></g><!--reverse link Add to Admin--><g id="link_Add_Admin"><path d="M171.3781,351.4741 C225.9771,359.5061 299.991,370.3949 338.356,376.0389 " fill="none" id="Add-backto-Admin" style="stroke:#181818;stroke-width:1.0;"/><polygon fill="#181818" points="165.442,350.6009,173.764,355.8682,170.3888,351.3286,174.9283,347.9533,165.442,350.6009" style="stroke:#181818;stroke-width:1.0;"/></g><!--reverse link Change to Admin--><g id="link_Change_Admin"><path d="M298.6541,233.525 C273.8771,240.543 253.294,251.6519 240,274.7969 C213.255,321.3599 295.894,357.1099 338.188,371.8859 " fill="none" id="Change-backto-Admin" style="stroke:#181818;stroke-width:1.0;"/><polygon fill="#181818" points="304.427,231.8899,294.6776,230.494,299.6163,233.2525,296.8578,238.1912,304.427,231.8899" style="stroke:#181818;stroke-width:1.0;"/></g><!--reverse link Output to Users--><g id="link_Output_Users"><path d="M692.6215,75.5994 C706.4565,82.0534 716.575,88.0579 729,98.2969 C814.257,168.5589 880.506,283.4999 910.863,342.2239 " fill="none" id="Output-backto-Users" style="stroke:#181818;stroke-width:2.0;"/><polygon fill="#181818" points="687.184,73.0629,693.6491,80.4927,691.7152,75.1767,697.0312,73.2427,687.184,73.0629" style="stroke:#181818;stroke-width:2.0;"/></g><!--reverse link BorrowOrReturn to Users--><g id="link_BorrowOrReturn_Users"><path d="M687.8579,145.0278 C702.5059,151.6668 714.585,158.1169 729,168.2969 C806.716,223.1809 878.419,311.6389 910.828,354.4719 " fill="none" id="BorrowOrReturn-backto-Users" style="stroke:#181818;stroke-width:2.0;"/><polygon fill="#181818" points="682.393,142.5509,688.9391,149.9095,686.9471,144.6149,692.2416,142.6229,682.393,142.5509" style="stroke:#181818;stroke-width:2.0;"/></g><!--reverse link Search to Users--><g id="link_Search_Users"><path d="M687.9648,218.1839 C702.1778,225.0959 713.905,231.0479 729,239.2969 C784.449,269.5979 799.737,275.3539 851,312.2969 C872.579,327.8479 895.462,347.9939 910.821,362.1169 " fill="none" id="Search-backto-Users" style="stroke:#181818;stroke-width:2.0;"/><polygon fill="#181818" points="682.569,215.5599,688.9133,223.0931,687.0655,217.7466,692.412,215.8988,682.569,215.5599" style="stroke:#181818;stroke-width:2.0;"/></g><!--reverse link OutputUsers to Users--><g id="link_OutputUsers_Users"><path d="M701.5975,286.1747 C742.3215,298.1437 798.873,316.1059 851,338.2969 C872.114,347.2849 895.264,359.8169 910.816,368.6529 " fill="none" id="OutputUsers-backto-Users" style="stroke:#181818;stroke-width:2.0;"/><polygon fill="#181818" points="695.841,284.4829,703.3479,290.8584,700.6381,285.8928,705.6037,283.183,695.841,284.4829" style="stroke:#181818;stroke-width:2.0;"/></g><!--reverse link AddUser to Users--><g id="link_AddUser_Users"><path d="M720.3011,349.6679 C759.5371,353.5979 805.362,358.6799 851,365.2969 C871.56,368.2779 895.003,372.6129 910.775,375.6679 " fill="none" id="AddUser-backto-Users" style="stroke:#181818;stroke-width:2.0;"/><polygon fill="#181818" points="714.331,349.0699,722.8875,353.9469,719.3061,349.5682,723.6848,345.9868,714.331,349.0699" style="stroke:#181818;stroke-width:2.0;"/></g><!--reverse link ChangeUser to Users--><g id="link_ChangeUser_Users"><path d="M717.0915,406.1204 C780.1835,398.1344 870.88,386.6539 910.791,381.6019 " fill="none" id="ChangeUser-backto-Users" style="stroke:#181818;stroke-width:2.0;"/><polygon fill="#181818" points="711.139,406.8739,720.5701,409.712,716.0994,406.246,719.5655,401.7754,711.139,406.8739" style="stroke:#181818;stroke-width:2.0;"/></g><!--reverse link DeleteUser to Users--><g id="link_DeleteUser_Users"><path d="M693.4024,469.6161 C752.9474,446.7891 865.674,403.5739 910.873,386.2459 " fill="none" id="DeleteUser-backto-Users" style="stroke:#181818;stroke-width:2.0;"/><polygon fill="#181818" points="687.8,471.7639,697.6355,472.2772,692.4687,469.9741,694.7718,464.8073,687.8,471.7639" style="stroke:#181818;stroke-width:2.0;"/></g><!--reverse link SearchUsers to Users--><g id="link_SearchUsers_Users"><path d="M689.7971,539.7529 C703.7641,533.2549 714.749,527.6589 729,519.2969 C799.188,478.1149 876.594,419.9559 910.91,393.4499 " fill="none" id="SearchUsers-backto-Users" style="stroke:#181818;stroke-width:2.0;"/><polygon fill="#181818" points="684.357,542.2839,694.2044,542.1142,688.8904,540.1748,690.8298,534.8608,684.357,542.2839" style="stroke:#181818;stroke-width:2.0;"/></g><!--reverse link Reload to Users--><g id="link_Reload_Users"><path d="M688.4749,613.1996 C703.0989,606.8446 714.947,600.5719 729,590.2969 C806.007,533.9939 878.32,445.8179 910.897,403.5209 " fill="none" id="Reload-backto-Users" style="stroke:#181818;stroke-width:2.0;"/><polygon fill="#181818" points="682.972,615.5909,692.8205,615.6725,687.5577,613.5981,689.6321,608.3353,682.972,615.5909" style="stroke:#181818;stroke-width:2.0;"/></g><!--reverse link Opacity to Users--><g id="link_Opacity_Users"><path d="M697.0945,680.158 C709.8075,674.004 718.043,668.7336 729,659.2969 C812.965,586.9799 880.258,472.4499 910.954,414.8529 " fill="none" id="Opacity-backto-Users" style="stroke:#181818;stroke-width:2.0;"/><polygon fill="#181818" points="691.694,682.7723,701.5376,682.4513,696.1944,680.5937,698.052,675.2506,691.694,682.7723" style="stroke:#181818;stroke-width:2.0;"/></g><!--SRC=[RPDDJi907CNtFSKiWOHm0I41tPDWF4038pHMIjf1uuw54MhIw08I51KaQ8n6q6YYoDTbsYcik89JEeLfXrNJzrx_7x_foF0G0QG0LSeN4CX9AimYIIaAI48o1968rPgQmsUx_sXVNzXV8tlKZaG48OIRKxltvpYV1cvyOACV1g86GkaoAfLHM0XPtGVhiiC7ahaSSN7h6zU7lBjR48jvI0BpMPEuCQlI9W_NIocggfocrGn4PRNejAXr5ZUzvRXc6GtpjnB3UWNVwSknpbRSWp94JaNSVfeFkdpBVIYgsG89cBDxwxt91aXfSpJ2vrVcnB0dv5MdduWdCAKeHrfuJSAkl-3Q3q_YG8EgjiR1fmWE9x96mYTS93Jahio7t2szIgjD-P2xgJVHechC9nFMpq1P4PtJiVfTygdzDfXNNwt-hJdKtVEdYvN4h8JEoEx9tB5K1F5uFB4vU5OBdXZhUTZv6dH0rbXJOaKM3AkpBFYEMwfxU_j62ImPbSazYHA3tWGMhXT9RFusgfHBZiZyBZvzTHK2vRqB87X0mGuPA0vMOmj1edwJ8lMBB5E_uq7rgmnLly5WtTPsMmSADZ0G9Skg_m00]--></g></svg>