<?xml version="1.0" encoding="us-ascii" standalone="no"?><svg xmlns="http://www.w3.org/2000/svg" xmlns:xlink="http://www.w3.org/1999/xlink" contentStyleType="text/css" height="610px" preserveAspectRatio="none" style="width:185px;height:610px;background:#FFFFFF;" version="1.1" viewBox="0 0 185 610" width="185px" zoomAndPan="magnify"><defs/><g><text fill="#000000" font-family="sans-serif" font-size="14" font-weight="bold" lengthAdjust="spacing" textLength="30" x="76" y="32.9951">&#30331;&#24405;</text><ellipse cx="86.5" cy="57.2969" fill="#222222" rx="10" ry="10" style="stroke:#222222;stroke-width:1.0;"/><rect fill="#F1F1F1" height="33.9688" rx="12.5" ry="12.5" style="stroke:#181818;stroke-width:0.5;" width="44" x="64.5" y="87.2969"/><text fill="#000000" font-family="sans-serif" font-size="12" lengthAdjust="spacing" textLength="24" x="74.5" y="108.4355">&#24320;&#22987;</text><rect fill="#F1F1F1" height="33.9688" rx="12.5" ry="12.5" style="stroke:#181818;stroke-width:0.5;" width="68" x="52.5" y="245.3784"/><text fill="#000000" font-family="sans-serif" font-size="12" lengthAdjust="spacing" textLength="48" x="62.5" y="266.5171">&#26242;&#19981;&#25903;&#25345;</text><polygon fill="#F1F1F1" points="53.5,189.668,119.5,189.668,131.5,201.668,119.5,213.668,53.5,213.668,41.5,201.668,53.5,189.668" style="stroke:#181818;stroke-width:0.5;"/><text fill="#000000" font-family="sans-serif" font-size="11" lengthAdjust="spacing" textLength="44" x="90.5" y="223.8784">&#25214;&#22238;&#23494;&#30721;</text><text fill="#000000" font-family="sans-serif" font-size="11" lengthAdjust="spacing" textLength="66" x="53.5" y="205.4761">&#25171;&#24320;&#30331;&#24405;&#30028;&#38754;</text><text fill="#000000" font-family="sans-serif" font-size="11" lengthAdjust="spacing" textLength="22" x="19.5" y="199.0737">&#30331;&#24405;</text><rect fill="#F1F1F1" height="33.9688" rx="12.5" ry="12.5" style="stroke:#181818;stroke-width:0.5;" width="92" x="40.5" y="392.0576"/><text fill="#000000" font-family="sans-serif" font-size="12" lengthAdjust="spacing" textLength="72" x="50.5" y="413.1963">&#24377;&#31383;&#25552;&#31034;&#38169;&#35823;</text><polygon fill="#F1F1F1" points="48,336.3472,125,336.3472,137,348.3472,125,360.3472,48,360.3472,36,348.3472,48,336.3472" style="stroke:#181818;stroke-width:0.5;"/><text fill="#000000" font-family="sans-serif" font-size="11" lengthAdjust="spacing" textLength="22" x="90.5" y="370.5576">&#38169;&#35823;</text><text fill="#000000" font-family="sans-serif" font-size="11" lengthAdjust="spacing" textLength="77" x="48" y="352.1553">&#36134;&#21495;&#23494;&#30721;&#27491;&#30830;&#65311;</text><text fill="#000000" font-family="sans-serif" font-size="11" lengthAdjust="spacing" textLength="22" x="14" y="345.7529">&#27491;&#30830;</text><polygon fill="#F1F1F1" points="61.5,141.2656,111.5,141.2656,123.5,153.2656,111.5,165.2656,61.5,165.2656,49.5,153.2656,61.5,141.2656" style="stroke:#181818;stroke-width:0.5;"/><text fill="#000000" font-family="sans-serif" font-size="11" lengthAdjust="spacing" textLength="28" x="90.5" y="175.4761">false</text><text fill="#000000" font-family="sans-serif" font-size="11" lengthAdjust="spacing" textLength="50" x="61.5" y="157.0737">&#33258;&#21160;&#30331;&#24405;?</text><text fill="#000000" font-family="sans-serif" font-size="11" lengthAdjust="spacing" textLength="23" x="123.5" y="150.6714">true</text><polygon fill="#F1F1F1" points="86.5,468.0264,98.5,480.0264,86.5,492.0264,74.5,480.0264,86.5,468.0264" style="stroke:#181818;stroke-width:0.5;"/><rect fill="#F1F1F1" height="33.9688" rx="12.5" ry="12.5" style="stroke:#181818;stroke-width:0.5;" width="116" x="28.5" y="512.0264"/><text fill="#000000" font-family="sans-serif" font-size="12" lengthAdjust="spacing" textLength="96" x="38.5" y="533.165">&#20445;&#23384;&#33258;&#21160;&#30331;&#24405;&#20449;&#24687;</text><rect fill="#F1F1F1" height="33.9688" rx="12.5" ry="12.5" style="stroke:#181818;stroke-width:0.5;" width="80" x="46.5" y="565.9951"/><text fill="#000000" font-family="sans-serif" font-size="12" lengthAdjust="spacing" textLength="60" x="56.5" y="587.1338">&#25171;&#24320;&#20027;&#30028;&#38754;</text><line style="stroke:#181818;stroke-width:1.0;" x1="86.5" x2="86.5" y1="67.2969" y2="87.2969"/><polygon fill="#181818" points="82.5,77.2969,86.5,87.2969,90.5,77.2969,86.5,81.2969" style="stroke:#181818;stroke-width:1.0;"/><line style="stroke:#181818;stroke-width:1.0;" x1="86.5" x2="86.5" y1="213.668" y2="245.3784"/><polygon fill="#181818" points="82.5,235.3784,86.5,245.3784,90.5,235.3784,86.5,239.3784" style="stroke:#181818;stroke-width:1.0;"/><line style="stroke:#181818;stroke-width:1.0;" x1="86.5" x2="86.5" y1="279.3472" y2="289.3472"/><line style="stroke:#181818;stroke-width:1.0;" x1="86.5" x2="143.5" y1="289.3472" y2="289.3472"/><polygon fill="#181818" points="139.5,253.9604,143.5,243.9604,147.5,253.9604,143.5,249.9604" style="stroke:#181818;stroke-width:1.0;"/><line style="stroke:#181818;stroke-width:1.0;" x1="143.5" x2="143.5" y1="201.668" y2="289.3472"/><line style="stroke:#181818;stroke-width:1.0;" x1="143.5" x2="131.5" y1="201.668" y2="201.668"/><polygon fill="#181818" points="141.5,197.668,131.5,201.668,141.5,205.668,137.5,201.668" style="stroke:#181818;stroke-width:1.0;"/><line style="stroke:#181818;stroke-width:1.0;" x1="41.5" x2="29.5" y1="201.668" y2="201.668"/><polygon fill="#181818" points="25.5,239.9604,29.5,249.9604,33.5,239.9604,29.5,243.9604" style="stroke:#181818;stroke-width:1.0;"/><line style="stroke:#181818;stroke-width:1.0;" x1="29.5" x2="29.5" y1="201.668" y2="301.3472"/><line style="stroke:#181818;stroke-width:1.0;" x1="29.5" x2="86.5" y1="301.3472" y2="301.3472"/><line style="stroke:#181818;stroke-width:1.0;" x1="86.5" x2="86.5" y1="301.3472" y2="336.3472"/><polygon fill="#181818" points="82.5,326.3472,86.5,336.3472,90.5,326.3472,86.5,330.3472" style="stroke:#181818;stroke-width:1.0;"/><line style="stroke:#181818;stroke-width:1.0;" x1="86.5" x2="86.5" y1="360.3472" y2="392.0576"/><polygon fill="#181818" points="82.5,382.0576,86.5,392.0576,90.5,382.0576,86.5,386.0576" style="stroke:#181818;stroke-width:1.0;"/><line style="stroke:#181818;stroke-width:1.0;" x1="86.5" x2="86.5" y1="426.0264" y2="436.0264"/><line style="stroke:#181818;stroke-width:1.0;" x1="86.5" x2="149" y1="436.0264" y2="436.0264"/><polygon fill="#181818" points="145,400.6396,149,390.6396,153,400.6396,149,396.6396" style="stroke:#181818;stroke-width:1.0;"/><line style="stroke:#181818;stroke-width:1.0;" x1="149" x2="149" y1="348.3472" y2="436.0264"/><line style="stroke:#181818;stroke-width:1.0;" x1="149" x2="137" y1="348.3472" y2="348.3472"/><polygon fill="#181818" points="147,344.3472,137,348.3472,147,352.3472,143,348.3472" style="stroke:#181818;stroke-width:1.0;"/><line style="stroke:#181818;stroke-width:1.0;" x1="36" x2="24" y1="348.3472" y2="348.3472"/><polygon fill="#181818" points="20,386.6396,24,396.6396,28,386.6396,24,390.6396" style="stroke:#181818;stroke-width:1.0;"/><line style="stroke:#181818;stroke-width:1.0;" x1="24" x2="24" y1="348.3472" y2="448.0264"/><line style="stroke:#181818;stroke-width:1.0;" x1="24" x2="86.5" y1="448.0264" y2="448.0264"/><line style="stroke:#181818;stroke-width:1.0;" x1="86.5" x2="86.5" y1="448.0264" y2="468.0264"/><polygon fill="#181818" points="82.5,458.0264,86.5,468.0264,90.5,458.0264,86.5,462.0264" style="stroke:#181818;stroke-width:1.0;"/><line style="stroke:#181818;stroke-width:1.0;" x1="86.5" x2="86.5" y1="165.2656" y2="189.668"/><polygon fill="#181818" points="82.5,179.668,86.5,189.668,90.5,179.668,86.5,183.668" style="stroke:#181818;stroke-width:1.0;"/><line style="stroke:#181818;stroke-width:1.0;" x1="123.5" x2="159" y1="153.2656" y2="153.2656"/><polygon fill="#181818" points="155,308.8472,159,318.8472,163,308.8472,159,312.8472" style="stroke:#181818;stroke-width:1.0;"/><line style="stroke:#181818;stroke-width:1.0;" x1="159" x2="159" y1="153.2656" y2="480.0264"/><line style="stroke:#181818;stroke-width:1.0;" x1="159" x2="98.5" y1="480.0264" y2="480.0264"/><polygon fill="#181818" points="108.5,476.0264,98.5,480.0264,108.5,484.0264,104.5,480.0264" style="stroke:#181818;stroke-width:1.0;"/><line style="stroke:#181818;stroke-width:1.0;" x1="86.5" x2="86.5" y1="121.2656" y2="141.2656"/><polygon fill="#181818" points="82.5,131.2656,86.5,141.2656,90.5,131.2656,86.5,135.2656" style="stroke:#181818;stroke-width:1.0;"/><line style="stroke:#181818;stroke-width:1.0;" x1="86.5" x2="86.5" y1="492.0264" y2="512.0264"/><polygon fill="#181818" points="82.5,502.0264,86.5,512.0264,90.5,502.0264,86.5,506.0264" style="stroke:#181818;stroke-width:1.0;"/><line style="stroke:#181818;stroke-width:1.0;" x1="86.5" x2="86.5" y1="545.9951" y2="565.9951"/><polygon fill="#181818" points="82.5,555.9951,86.5,565.9951,90.5,555.9951,86.5,559.9951" style="stroke:#181818;stroke-width:1.0;"/><!--SRC=[NOyxRi9048RxFSMMjezW5vm5YRMyaaM15z76AK19Y8WKB5xYuO02GY9k8iK91YxZsJKLLs1X6YjJplpp_Ve45pwZbgL6UpX4baL88AeDGMp87c3zuX3kKgFeRE5vWv6AION7wjHmgtx0J4Brj3pkCqC-lUidJAceUvv-c9G7LE-FC9b1qbQB4FEtiUNuCKzVPJ-HtT2vhrczXYHaOBPKK7n_Gky7GNAtLF7N9PjZnxa_AfAaH8ViLsq7ilUcLdzu_DU109CmRM68HbEhw1jtYPsVfh0RbftpKon33R1HCK_twETS0G00]--></g></svg>