<?xml version="1.0" encoding="us-ascii" standalone="no"?><svg xmlns="http://www.w3.org/2000/svg" xmlns:xlink="http://www.w3.org/1999/xlink" contentStyleType="text/css" height="590px" preserveAspectRatio="none" style="width:1450px;height:590px;background:#FFFFFF;" version="1.1" viewBox="0 0 1450 590" width="1450px" zoomAndPan="magnify"><defs/><g><text fill="#000000" font-family="sans-serif" font-size="14" font-weight="bold" lengthAdjust="spacing" textLength="90" x="673" y="22.9951">&#22270;&#20070;&#31649;&#29702;&#31995;&#32479;</text><!--class Books--><g id="elem_Books"><rect codeLine="3" fill="#F1F1F1" height="267.5625" id="Books" rx="2.5" ry="2.5" style="stroke:#181818;stroke-width:0.5;" width="774" x="60.5" y="44.2969"/><ellipse cx="421.25" cy="60.2969" fill="#ADD1B2" rx="11" ry="11" style="stroke:#181818;stroke-width:1.0;"/><path d="M423.5938,55.9688 C422.6563,55.5313 422.0625,55.3906 421.1875,55.3906 C418.5625,55.3906 416.5625,57.4688 416.5625,60.1875 L416.5625,61.3125 C416.5625,63.8906 418.6719,65.7813 421.5625,65.7813 C422.7813,65.7813 423.9375,65.4844 424.6875,64.9375 C425.2656,64.5313 425.5938,64.0781 425.5938,63.6875 C425.5938,63.2344 425.2031,62.8438 424.7344,62.8438 C424.5156,62.8438 424.3125,62.9219 424.125,63.1094 C423.6719,63.5938 423.6719,63.5938 423.4844,63.6875 C423.0625,63.9531 422.375,64.0781 421.6094,64.0781 C419.5625,64.0781 418.2656,62.9844 418.2656,61.2813 L418.2656,60.1875 C418.2656,58.4063 419.5156,57.0938 421.25,57.0938 C421.8281,57.0938 422.4375,57.25 422.9063,57.5 C423.3906,57.7813 423.5625,58 423.6563,58.4063 C423.7188,58.8125 423.75,58.9375 423.8906,59.0625 C424.0313,59.2031 424.2656,59.3125 424.4844,59.3125 C424.75,59.3125 425.0156,59.1719 425.1875,58.9531 C425.2969,58.7969 425.3281,58.6094 425.3281,58.1875 L425.3281,56.7656 C425.3281,56.3281 425.3125,56.2031 425.2188,56.0469 C425.0625,55.7813 424.7813,55.6406 424.4844,55.6406 C424.1875,55.6406 423.9844,55.7344 423.7656,56.0469 L423.5938,55.9688 Z " fill="#000000"/><text fill="#000000" font-family="sans-serif" font-size="14" lengthAdjust="spacing" textLength="44" x="441.75" y="65.1436">Books</text><line style="stroke:#181818;stroke-width:0.5;" x1="61.5" x2="833.5" y1="76.2969" y2="76.2969"/><ellipse cx="71.5" cy="89.9453" fill="#84BE84" rx="3" ry="3" style="stroke:#038048;stroke-width:1.0;"/><text fill="#000000" font-family="sans-serif" font-size="14" lengthAdjust="spacing" textLength="244" x="80.5" y="93.292">void InitBooksList(BooksList **pL)</text><ellipse cx="71.5" cy="106.2422" fill="#84BE84" rx="3" ry="3" style="stroke:#038048;stroke-width:1.0;"/><text fill="#000000" font-family="sans-serif" font-size="14" lengthAdjust="spacing" textLength="332" x="80.5" y="109.5889">void InitBooksInfo(BooksInfo *info, cJSON *arr)</text><line style="stroke:#181818;stroke-width:1.0;stroke-dasharray:1.0,2.0;" x1="61.5" x2="833.5" y1="116.8906" y2="116.8906"/><ellipse cx="71.5" cy="130.5391" fill="#84BE84" rx="3" ry="3" style="stroke:#038048;stroke-width:1.0;"/><text fill="#000000" font-family="sans-serif" font-size="14" lengthAdjust="spacing" textLength="521" x="80.5" y="133.8857">void OutputOneBook(BooksList *L, QStandardItemModel *model,int row)</text><ellipse cx="71.5" cy="146.8359" fill="#84BE84" rx="3" ry="3" style="stroke:#038048;stroke-width:1.0;"/><text fill="#000000" font-family="sans-serif" font-size="14" lengthAdjust="spacing" textLength="459" x="80.5" y="150.1826">void OutputAllBooks(BooksList *L,QStandardItemModel *model)</text><line style="stroke:#181818;stroke-width:1.0;stroke-dasharray:1.0,2.0;" x1="61.5" x2="833.5" y1="157.4844" y2="157.4844"/><ellipse cx="71.5" cy="171.1328" fill="#84BE84" rx="3" ry="3" style="stroke:#038048;stroke-width:1.0;"/><text fill="#000000" font-family="sans-serif" font-size="14" lengthAdjust="spacing" textLength="748" x="80.5" y="174.4795">bool InsertBook(BooksList *L, QList&lt;QLineEdit *&gt; lineEdits, int InsertPos, bool isAvailable, bool iseBook)</text><ellipse cx="71.5" cy="187.4297" fill="#84BE84" rx="3" ry="3" style="stroke:#038048;stroke-width:1.0;"/><text fill="#000000" font-family="sans-serif" font-size="14" lengthAdjust="spacing" textLength="512" x="80.5" y="190.7764">bool DeleteBooks(BooksList *L, QItemSelectionModel *selectionModel)</text><ellipse cx="71.5" cy="203.7266" fill="#84BE84" rx="3" ry="3" style="stroke:#038048;stroke-width:1.0;"/><text fill="#000000" font-family="sans-serif" font-size="14" lengthAdjust="spacing" textLength="251" x="80.5" y="207.0732">void DeleteAllBooks(BooksList **L)</text><ellipse cx="71.5" cy="220.0234" fill="#84BE84" rx="3" ry="3" style="stroke:#038048;stroke-width:1.0;"/><text fill="#000000" font-family="sans-serif" font-size="14" lengthAdjust="spacing" textLength="542" x="80.5" y="223.3701">BooksList *SearchBook(BooksList *L, char *books_id, int type, bool isStrict)</text><ellipse cx="71.5" cy="236.3203" fill="#84BE84" rx="3" ry="3" style="stroke:#038048;stroke-width:1.0;"/><text fill="#000000" font-family="sans-serif" font-size="14" lengthAdjust="spacing" textLength="743" x="80.5" y="239.667">bool ChangeBook(BooksList *L, QList&lt;QLineEdit *&gt; lineEdits, int BookId, bool isAvailable, bool iseBook)</text><line style="stroke:#181818;stroke-width:1.0;stroke-dasharray:1.0,2.0;" x1="61.5" x2="833.5" y1="246.9688" y2="246.9688"/><ellipse cx="71.5" cy="260.6172" fill="#84BE84" rx="3" ry="3" style="stroke:#038048;stroke-width:1.0;"/><text fill="#000000" font-family="sans-serif" font-size="14" lengthAdjust="spacing" textLength="480" x="80.5" y="263.9639">bool BorrowBook(BooksList *L, UsersList *uL, int bookId, int UserId)</text><ellipse cx="71.5" cy="276.9141" fill="#84BE84" rx="3" ry="3" style="stroke:#038048;stroke-width:1.0;"/><text fill="#000000" font-family="sans-serif" font-size="14" lengthAdjust="spacing" textLength="478" x="80.5" y="280.2607">bool ReturnBook(BooksList *L, UsersList *uL, int bookId, int UserId)</text><line style="stroke:#181818;stroke-width:1.0;stroke-dasharray:1.0,2.0;" x1="61.5" x2="833.5" y1="287.5625" y2="287.5625"/><ellipse cx="71.5" cy="301.2109" fill="#84BE84" rx="3" ry="3" style="stroke:#038048;stroke-width:1.0;"/><text fill="#000000" font-family="sans-serif" font-size="14" lengthAdjust="spacing" textLength="342" x="80.5" y="304.5576">bool SaveBooksInfo(BooksList *L, QString path)</text></g><!--class Users--><g id="elem_Users"><rect codeLine="22" fill="#F1F1F1" height="194.6719" id="Users" rx="2.5" ry="2.5" style="stroke:#181818;stroke-width:0.5;" width="573" x="870" y="80.7969"/><ellipse cx="1133.25" cy="96.7969" fill="#ADD1B2" rx="11" ry="11" style="stroke:#181818;stroke-width:1.0;"/><path d="M1135.5938,92.4688 C1134.6563,92.0313 1134.0625,91.8906 1133.1875,91.8906 C1130.5625,91.8906 1128.5625,93.9688 1128.5625,96.6875 L1128.5625,97.8125 C1128.5625,100.3906 1130.6719,102.2813 1133.5625,102.2813 C1134.7813,102.2813 1135.9375,101.9844 1136.6875,101.4375 C1137.2656,101.0313 1137.5938,100.5781 1137.5938,100.1875 C1137.5938,99.7344 1137.2031,99.3438 1136.7344,99.3438 C1136.5156,99.3438 1136.3125,99.4219 1136.125,99.6094 C1135.6719,100.0938 1135.6719,100.0938 1135.4844,100.1875 C1135.0625,100.4531 1134.375,100.5781 1133.6094,100.5781 C1131.5625,100.5781 1130.2656,99.4844 1130.2656,97.7813 L1130.2656,96.6875 C1130.2656,94.9063 1131.5156,93.5938 1133.25,93.5938 C1133.8281,93.5938 1134.4375,93.75 1134.9063,94 C1135.3906,94.2813 1135.5625,94.5 1135.6563,94.9063 C1135.7188,95.3125 1135.75,95.4375 1135.8906,95.5625 C1136.0313,95.7031 1136.2656,95.8125 1136.4844,95.8125 C1136.75,95.8125 1137.0156,95.6719 1137.1875,95.4531 C1137.2969,95.2969 1137.3281,95.1094 1137.3281,94.6875 L1137.3281,93.2656 C1137.3281,92.8281 1137.3125,92.7031 1137.2188,92.5469 C1137.0625,92.2813 1136.7813,92.1406 1136.4844,92.1406 C1136.1875,92.1406 1135.9844,92.2344 1135.7656,92.5469 L1135.5938,92.4688 Z " fill="#000000"/><text fill="#000000" font-family="sans-serif" font-size="14" lengthAdjust="spacing" textLength="38" x="1153.75" y="101.6436">Users</text><line style="stroke:#181818;stroke-width:0.5;" x1="871" x2="1442" y1="112.7969" y2="112.7969"/><ellipse cx="881" cy="126.4453" fill="#84BE84" rx="3" ry="3" style="stroke:#038048;stroke-width:1.0;"/><text fill="#000000" font-family="sans-serif" font-size="14" lengthAdjust="spacing" textLength="232" x="890" y="129.792">void InitUsersList(UsersList **pL)</text><ellipse cx="881" cy="142.7422" fill="#84BE84" rx="3" ry="3" style="stroke:#038048;stroke-width:1.0;"/><text fill="#000000" font-family="sans-serif" font-size="14" lengthAdjust="spacing" textLength="313" x="890" y="146.0889">void InitUsersInfo(UserInfo *info, cJSON *arr)</text><line style="stroke:#181818;stroke-width:1.0;stroke-dasharray:1.0,2.0;" x1="871" x2="1442" y1="153.3906" y2="153.3906"/><ellipse cx="881" cy="167.0391" fill="#84BE84" rx="3" ry="3" style="stroke:#038048;stroke-width:1.0;"/><text fill="#000000" font-family="sans-serif" font-size="14" lengthAdjust="spacing" textLength="301" x="890" y="170.3857">bool InsertUser(UsersList *L, UserInfo info)</text><ellipse cx="881" cy="183.3359" fill="#84BE84" rx="3" ry="3" style="stroke:#038048;stroke-width:1.0;"/><text fill="#000000" font-family="sans-serif" font-size="14" lengthAdjust="spacing" textLength="313" x="890" y="186.6826">bool ChangeUser(UsersList *L, UserInfo info)</text><ellipse cx="881" cy="199.6328" fill="#84BE84" rx="3" ry="3" style="stroke:#038048;stroke-width:1.0;"/><text fill="#000000" font-family="sans-serif" font-size="14" lengthAdjust="spacing" textLength="285" x="890" y="202.9795">bool DeleteUser(UsersList *L, int UserId)</text><ellipse cx="881" cy="215.9297" fill="#84BE84" rx="3" ry="3" style="stroke:#038048;stroke-width:1.0;"/><text fill="#000000" font-family="sans-serif" font-size="14" lengthAdjust="spacing" textLength="229" x="890" y="219.2764">bool SaveUsersInfo(UsersList *L)</text><ellipse cx="881" cy="232.2266" fill="#84BE84" rx="3" ry="3" style="stroke:#038048;stroke-width:1.0;"/><text fill="#000000" font-family="sans-serif" font-size="14" lengthAdjust="spacing" textLength="467" x="890" y="235.5732">UsersList* SearchUser(UsersList *uL, QString uname, bool isStrict)</text><ellipse cx="881" cy="248.5234" fill="#84BE84" rx="3" ry="3" style="stroke:#038048;stroke-width:1.0;"/><text fill="#000000" font-family="sans-serif" font-size="14" lengthAdjust="spacing" textLength="547" x="890" y="251.8701">void OutputAllUsers(UsersList *uList, QListWidget *listWidget, int nowUserId)</text><text fill="#000000" font-family="sans-serif" font-size="14" lengthAdjust="spacing" textLength="4" x="890" y="268.167">&#160;</text></g><!--class Utils--><g id="elem_Utils"><rect codeLine="35" fill="#F1F1F1" height="210.9688" id="Utils" rx="2.5" ry="2.5" style="stroke:#181818;stroke-width:0.5;" width="881" x="7" y="372.2969"/><ellipse cx="427.75" cy="388.2969" fill="#ADD1B2" rx="11" ry="11" style="stroke:#181818;stroke-width:1.0;"/><path d="M430.0938,383.9688 C429.1563,383.5313 428.5625,383.3906 427.6875,383.3906 C425.0625,383.3906 423.0625,385.4688 423.0625,388.1875 L423.0625,389.3125 C423.0625,391.8906 425.1719,393.7813 428.0625,393.7813 C429.2813,393.7813 430.4375,393.4844 431.1875,392.9375 C431.7656,392.5313 432.0938,392.0781 432.0938,391.6875 C432.0938,391.2344 431.7031,390.8438 431.2344,390.8438 C431.0156,390.8438 430.8125,390.9219 430.625,391.1094 C430.1719,391.5938 430.1719,391.5938 429.9844,391.6875 C429.5625,391.9531 428.875,392.0781 428.1094,392.0781 C426.0625,392.0781 424.7656,390.9844 424.7656,389.2813 L424.7656,388.1875 C424.7656,386.4063 426.0156,385.0938 427.75,385.0938 C428.3281,385.0938 428.9375,385.25 429.4063,385.5 C429.8906,385.7813 430.0625,386 430.1563,386.4063 C430.2188,386.8125 430.25,386.9375 430.3906,387.0625 C430.5313,387.2031 430.7656,387.3125 430.9844,387.3125 C431.25,387.3125 431.5156,387.1719 431.6875,386.9531 C431.7969,386.7969 431.8281,386.6094 431.8281,386.1875 L431.8281,384.7656 C431.8281,384.3281 431.8125,384.2031 431.7188,384.0469 C431.5625,383.7813 431.2813,383.6406 430.9844,383.6406 C430.6875,383.6406 430.4844,383.7344 430.2656,384.0469 L430.0938,383.9688 Z " fill="#000000"/><text fill="#000000" font-family="sans-serif" font-size="14" lengthAdjust="spacing" textLength="31" x="448.25" y="393.1436">Utils</text><line style="stroke:#181818;stroke-width:0.5;" x1="8" x2="887" y1="404.2969" y2="404.2969"/><ellipse cx="18" cy="417.9453" fill="#84BE84" rx="3" ry="3" style="stroke:#038048;stroke-width:1.0;"/><text fill="#000000" font-family="sans-serif" font-size="14" lengthAdjust="spacing" textLength="234" x="27" y="421.292">QString generateSalt(int length)</text><ellipse cx="18" cy="434.2422" fill="#84BE84" rx="3" ry="3" style="stroke:#038048;stroke-width:1.0;"/><text fill="#000000" font-family="sans-serif" font-size="14" lengthAdjust="spacing" textLength="505" x="27" y="437.5889">QString calculateSaltedMD5(const QString &amp;data, const QString &amp;salt)</text><ellipse cx="18" cy="450.5391" fill="#84BE84" rx="3" ry="3" style="stroke:#038048;stroke-width:1.0;"/><text fill="#000000" font-family="sans-serif" font-size="14" lengthAdjust="spacing" textLength="855" x="27" y="453.8857">bool verifyPassword(const QString &amp;inputPassword, const QString &amp;storedSalt, const QString &amp;storedHashedPassword)</text><line style="stroke:#181818;stroke-width:1.0;stroke-dasharray:1.0,2.0;" x1="8" x2="887" y1="461.1875" y2="461.1875"/><ellipse cx="18" cy="474.8359" fill="#84BE84" rx="3" ry="3" style="stroke:#038048;stroke-width:1.0;"/><text fill="#000000" font-family="sans-serif" font-size="14" lengthAdjust="spacing" textLength="535" x="27" y="478.1826">bool ChangeUserinfo(UserInfo info, QString newUname, QString newQuote)</text><ellipse cx="18" cy="491.1328" fill="#84BE84" rx="3" ry="3" style="stroke:#038048;stroke-width:1.0;"/><text fill="#000000" font-family="sans-serif" font-size="14" lengthAdjust="spacing" textLength="149" x="27" y="494.4795">void ClearAutoSave()</text><ellipse cx="18" cy="507.4297" fill="#84BE84" rx="3" ry="3" style="stroke:#038048;stroke-width:1.0;"/><text fill="#000000" font-family="sans-serif" font-size="14" lengthAdjust="spacing" textLength="209" x="27" y="510.7764">cJSON* ReadJsonFile(FILE *fp)</text><ellipse cx="18" cy="523.7266" fill="#84BE84" rx="3" ry="3" style="stroke:#038048;stroke-width:1.0;"/><text fill="#000000" font-family="sans-serif" font-size="14" lengthAdjust="spacing" textLength="258" x="27" y="527.0732">cJSON* ReadAutoSave(cJSON **root)</text><ellipse cx="18" cy="540.0234" fill="#84BE84" rx="3" ry="3" style="stroke:#038048;stroke-width:1.0;"/><text fill="#000000" font-family="sans-serif" font-size="14" lengthAdjust="spacing" textLength="228" x="27" y="543.3701">cJSON* ReadUsers(cJSON **root)</text><ellipse cx="18" cy="556.3203" fill="#84BE84" rx="3" ry="3" style="stroke:#038048;stroke-width:1.0;"/><text fill="#000000" font-family="sans-serif" font-size="14" lengthAdjust="spacing" textLength="366" x="27" y="559.667">bool SaveJsonToFile(cJSON *root, QString filename)</text><ellipse cx="18" cy="572.6172" fill="#84BE84" rx="3" ry="3" style="stroke:#038048;stroke-width:1.0;"/><text fill="#000000" font-family="sans-serif" font-size="14" lengthAdjust="spacing" textLength="224" x="27" y="575.9639">void ReloadFile(BooksList **pL)</text></g><!--SRC=[fLKzZnCn4EtpAroXZOckeqD8kI-nfnovt7AYHCvwabWuTkITJNH2rrBJKo0QIXegT1A_1fI_WUtzycxsn0cQNU_upPitdkS41KeWbFx-zFFNZw_xRr_s7p_ilz_lxpzJEXYaacKPETRwNVP-GCZJhHQSn4gW3qr4Xb6ziYIRoV0G5Qk5ZkeLeS8-HoIzIAQl26N6k9IZepflckCcnwa2bnAoJqPabY1Jd1aU8wmlDGT9wDgzHa8XCNetxD2CfVGCRPu7QHefSwsbRI43WtqwtEgvVIeuuyB6NX1PhhCHSLgAr2jjFpsLoCPR9YIRIwWZliDXNUqK923qo2KpfpEnsoaAhKh1MUkxQRoWwMkS5jC98Wamawvw6anNp10wTx6tWXSjuUscqPwW4IasuazMJ2tXduxAuMF-c7CAHdEiZHrtJxqRU-xbLpuf2ipB0cxjjcFUwBu6p8tw7vv0LCAsqB5yQ5qZr99i6Aw6WxlgQlaoxQjLLuu23GTNo-_vEbxANsvMO6S73vdBNZs38-ZEzF7umdaz-Bw3TsVLxg72UqmTeAGmQPSs3yuqLspTQytsBu7FRdFOLsdHDu8lmSPalIvqAxrhf0TpGo6BkLKYbg30C8I4IOnSfWIrTBCEC2cJQIvB4F3BqsTHgfMLKW6US8RCZh0Tp2owERaj6B6ulR8gTjhmBe5Gjjbgyv09jG7kgZ-mzP9bA-1LViT0ZI54otY5xoec1RkROY11P9PhX6Oc9z8ETPoZTZQ8VDpRbjeBoVX5fjMva12TnvCpGXURBg3EBBrEZTRO1HNZFa3KxdDLNcjVfmGvJADwONTS7utgQv2QSP_H_TUx-mC0]--></g></svg>