<?xml version="1.0" encoding="us-ascii" standalone="no"?><svg xmlns="http://www.w3.org/2000/svg" xmlns:xlink="http://www.w3.org/1999/xlink" contentStyleType="text/css" height="749px" preserveAspectRatio="none" style="width:250px;height:749px;background:#FFFFFF;" version="1.1" viewBox="0 0 250 749" width="250px" zoomAndPan="magnify"><defs/><g><text fill="#000000" font-family="sans-serif" font-size="14" font-weight="bold" lengthAdjust="spacing" textLength="30" x="108.5" y="32.9951">&#27880;&#20876;</text><ellipse cx="124" cy="57.2969" fill="#222222" rx="10" ry="10" style="stroke:#222222;stroke-width:1.0;"/><rect fill="#F1F1F1" height="33.9688" rx="12.5" ry="12.5" style="stroke:#181818;stroke-width:0.5;" width="128" x="60" y="87.2969"/><text fill="#000000" font-family="sans-serif" font-size="12" lengthAdjust="spacing" textLength="108" x="70" y="108.4355">&#28857;&#20987;&#30331;&#38470;&#30028;&#38754;&#30340;&#27880;&#20876;</text><rect fill="#F1F1F1" height="33.9688" rx="12.5" ry="12.5" style="stroke:#181818;stroke-width:0.5;" width="116" x="66" y="141.2656"/><text fill="#000000" font-family="sans-serif" font-size="12" lengthAdjust="spacing" textLength="96" x="76" y="162.4043">&#36339;&#36716;&#25171;&#24320;&#27880;&#20876;&#30028;&#38754;</text><rect fill="#F1F1F1" height="33.9688" rx="12.5" ry="12.5" style="stroke:#181818;stroke-width:0.5;" width="44" x="102" y="216.6333"/><text fill="#000000" font-family="sans-serif" font-size="12" lengthAdjust="spacing" textLength="24" x="112" y="237.772">&#27880;&#20876;</text><rect fill="#F1F1F1" height="33.9688" rx="12.5" ry="12.5" style="stroke:#181818;stroke-width:0.5;" width="140" x="54" y="326.3125"/><text fill="#000000" font-family="sans-serif" font-size="12" lengthAdjust="spacing" textLength="120" x="64" y="347.4512">&#24377;&#31383;&#25552;&#31034;&#65306;&#23494;&#30721;&#19981;&#19968;&#33268;</text><rect fill="#F1F1F1" height="33.9688" rx="12.5" ry="12.5" style="stroke:#181818;stroke-width:0.5;" width="68" x="90" y="389.3789"/><text fill="#000000" font-family="sans-serif" font-size="12" lengthAdjust="spacing" textLength="48" x="100" y="410.5176">&#37325;&#26032;&#36755;&#20837;</text><polygon fill="#F1F1F1" points="74.5,270.6021,173.5,270.6021,185.5,282.6021,173.5,294.6021,74.5,294.6021,62.5,282.6021,74.5,270.6021" style="stroke:#181818;stroke-width:0.5;"/><text fill="#000000" font-family="sans-serif" font-size="11" lengthAdjust="spacing" textLength="33" x="128" y="304.8125">&#19981;&#19968;&#33268;</text><text fill="#000000" font-family="sans-serif" font-size="11" lengthAdjust="spacing" textLength="99" x="74.5" y="286.4102">&#20004;&#27425;&#23494;&#30721;&#26159;&#21542;&#19968;&#33268;&#65311;</text><text fill="#000000" font-family="sans-serif" font-size="11" lengthAdjust="spacing" textLength="22" x="40.5" y="280.0078">&#19968;&#33268;</text><rect fill="#F1F1F1" height="33.9688" rx="12.5" ry="12.5" style="stroke:#181818;stroke-width:0.5;" width="176" x="36" y="521.0581"/><text fill="#000000" font-family="sans-serif" font-size="12" lengthAdjust="spacing" textLength="156" x="46" y="542.1968">&#24377;&#31383;&#25552;&#31034;&#65306;&#29992;&#25143;&#21517;&#25110;&#23494;&#30721;&#38169;&#35823;</text><polygon fill="#F1F1F1" points="80,465.3477,168,465.3477,180,477.3477,168,489.3477,80,489.3477,68,477.3477,80,465.3477" style="stroke:#181818;stroke-width:0.5;"/><text fill="#000000" font-family="sans-serif" font-size="11" lengthAdjust="spacing" textLength="22" x="128" y="499.5581">&#37325;&#22797;</text><text fill="#000000" font-family="sans-serif" font-size="11" lengthAdjust="spacing" textLength="88" x="80" y="481.1558">&#29992;&#25143;&#21517;&#26159;&#21542;&#37325;&#22797;&#65311;</text><text fill="#000000" font-family="sans-serif" font-size="11" lengthAdjust="spacing" textLength="33" x="35" y="474.7534">&#19981;&#37325;&#22797;</text><rect fill="#F1F1F1" height="33.9688" rx="12.5" ry="12.5" style="stroke:#181818;stroke-width:0.5;" width="92" x="78" y="597.0269"/><text fill="#000000" font-family="sans-serif" font-size="12" lengthAdjust="spacing" textLength="72" x="88" y="618.1655">&#20445;&#23384;&#29992;&#25143;&#20449;&#24687;</text><rect fill="#F1F1F1" height="33.9688" rx="12.5" ry="12.5" style="stroke:#181818;stroke-width:0.5;" width="68" x="90" y="650.9956"/><text fill="#000000" font-family="sans-serif" font-size="12" lengthAdjust="spacing" textLength="48" x="100" y="672.1343">&#27880;&#20876;&#25104;&#21151;</text><rect fill="#F1F1F1" height="33.9688" rx="12.5" ry="12.5" style="stroke:#181818;stroke-width:0.5;" width="92" x="78" y="704.9644"/><text fill="#000000" font-family="sans-serif" font-size="12" lengthAdjust="spacing" textLength="72" x="88" y="726.103">&#36339;&#36716;&#30331;&#38470;&#30028;&#38754;</text><line style="stroke:#181818;stroke-width:1.0;" x1="124" x2="124" y1="67.2969" y2="87.2969"/><polygon fill="#181818" points="120,77.2969,124,87.2969,128,77.2969,124,81.2969" style="stroke:#181818;stroke-width:1.0;"/><line style="stroke:#181818;stroke-width:1.0;" x1="124" x2="124" y1="121.2656" y2="141.2656"/><polygon fill="#181818" points="120,131.2656,124,141.2656,128,131.2656,124,135.2656" style="stroke:#181818;stroke-width:1.0;"/><line style="stroke:#181818;stroke-width:1.0;" x1="124" x2="124" y1="175.2344" y2="216.6333"/><polygon fill="#181818" points="120,206.6333,124,216.6333,128,206.6333,124,210.6333" style="stroke:#181818;stroke-width:1.0;"/><text fill="#000000" font-family="sans-serif" font-size="11" lengthAdjust="spacing" textLength="66" x="128" y="196.5391">&#36755;&#20837;&#36134;&#21495;&#23494;&#30721;</text><line style="stroke:#181818;stroke-width:1.0;" x1="124" x2="124" y1="360.2813" y2="389.3789"/><polygon fill="#181818" points="120,379.3789,124,389.3789,128,379.3789,124,383.3789" style="stroke:#181818;stroke-width:1.0;"/><line style="stroke:#181818;stroke-width:1.0;" x1="124" x2="124" y1="294.6021" y2="326.3125"/><polygon fill="#181818" points="120,316.3125,124,326.3125,128,316.3125,124,320.3125" style="stroke:#181818;stroke-width:1.0;"/><line style="stroke:#181818;stroke-width:1.0;" x1="124" x2="124" y1="423.3477" y2="433.3477"/><line style="stroke:#181818;stroke-width:1.0;" x1="124" x2="206" y1="433.3477" y2="433.3477"/><polygon fill="#181818" points="202,369.3789,206,359.3789,210,369.3789,206,365.3789" style="stroke:#181818;stroke-width:1.0;"/><line style="stroke:#181818;stroke-width:1.0;" x1="206" x2="206" y1="282.6021" y2="433.3477"/><line style="stroke:#181818;stroke-width:1.0;" x1="206" x2="185.5" y1="282.6021" y2="282.6021"/><polygon fill="#181818" points="195.5,278.6021,185.5,282.6021,195.5,286.6021,191.5,282.6021" style="stroke:#181818;stroke-width:1.0;"/><line style="stroke:#181818;stroke-width:1.0;" x1="62.5" x2="42" y1="282.6021" y2="282.6021"/><polygon fill="#181818" points="38,355.3789,42,365.3789,46,355.3789,42,359.3789" style="stroke:#181818;stroke-width:1.0;"/><line style="stroke:#181818;stroke-width:1.0;" x1="42" x2="42" y1="282.6021" y2="445.3477"/><line style="stroke:#181818;stroke-width:1.0;" x1="42" x2="124" y1="445.3477" y2="445.3477"/><line style="stroke:#181818;stroke-width:1.0;" x1="124" x2="124" y1="445.3477" y2="465.3477"/><polygon fill="#181818" points="120,455.3477,124,465.3477,128,455.3477,124,459.3477" style="stroke:#181818;stroke-width:1.0;"/><line style="stroke:#181818;stroke-width:1.0;" x1="124" x2="124" y1="250.6021" y2="270.6021"/><polygon fill="#181818" points="120,260.6021,124,270.6021,128,260.6021,124,264.6021" style="stroke:#181818;stroke-width:1.0;"/><line style="stroke:#181818;stroke-width:1.0;" x1="124" x2="124" y1="489.3477" y2="521.0581"/><polygon fill="#181818" points="120,511.0581,124,521.0581,128,511.0581,124,515.0581" style="stroke:#181818;stroke-width:1.0;"/><line style="stroke:#181818;stroke-width:1.0;" x1="124" x2="124" y1="555.0269" y2="565.0269"/><line style="stroke:#181818;stroke-width:1.0;" x1="124" x2="224" y1="565.0269" y2="565.0269"/><polygon fill="#181818" points="220,529.6401,224,519.6401,228,529.6401,224,525.6401" style="stroke:#181818;stroke-width:1.0;"/><line style="stroke:#181818;stroke-width:1.0;" x1="224" x2="224" y1="477.3477" y2="565.0269"/><line style="stroke:#181818;stroke-width:1.0;" x1="224" x2="180" y1="477.3477" y2="477.3477"/><polygon fill="#181818" points="190,473.3477,180,477.3477,190,481.3477,186,477.3477" style="stroke:#181818;stroke-width:1.0;"/><line style="stroke:#181818;stroke-width:1.0;" x1="68" x2="24" y1="477.3477" y2="477.3477"/><polygon fill="#181818" points="20,515.6401,24,525.6401,28,515.6401,24,519.6401" style="stroke:#181818;stroke-width:1.0;"/><line style="stroke:#181818;stroke-width:1.0;" x1="24" x2="24" y1="477.3477" y2="577.0269"/><line style="stroke:#181818;stroke-width:1.0;" x1="24" x2="124" y1="577.0269" y2="577.0269"/><line style="stroke:#181818;stroke-width:1.0;" x1="124" x2="124" y1="577.0269" y2="597.0269"/><polygon fill="#181818" points="120,587.0269,124,597.0269,128,587.0269,124,591.0269" style="stroke:#181818;stroke-width:1.0;"/><line style="stroke:#181818;stroke-width:1.0;" x1="124" x2="124" y1="630.9956" y2="650.9956"/><polygon fill="#181818" points="120,640.9956,124,650.9956,128,640.9956,124,644.9956" style="stroke:#181818;stroke-width:1.0;"/><line style="stroke:#181818;stroke-width:1.0;" x1="124" x2="124" y1="684.9644" y2="704.9644"/><polygon fill="#181818" points="120,694.9644,124,704.9644,128,694.9644,124,698.9644" style="stroke:#181818;stroke-width:1.0;"/><!--SRC=[RP3FQi9048Vl-nGvwg4la0NVHMYW0UcX1dhLqYPHN0pufqOGQqb5YX918LfZVPdCxERaApGmiIgujvdzVVF1ppAjYg7XQWPsYx6gLNwoc2vVjk3ifBzBVLlsMkdeKmvVASEPhgALsi-nqO6uHalAS7PNKhyTUFjIwocq8mXj-L7FW1Fv_61MZ4Ao2N0-eKySXE1DaqrDEUjZF2vgPbNB0e8sHQPbJuTuAx_ViUt9uESO3udy3t4AfOx0_fBqd1cFzoSP7Q99TcVeHk09ycOC12Bt5cYwxJo3Rf_yQTTNOKZoIvsuEfCSHh0O49qS9bZFYRmIT3reZlCLrNfPEly3]--></g></svg>