<?xml version="1.0" encoding="us-ascii" standalone="no"?><svg xmlns="http://www.w3.org/2000/svg" xmlns:xlink="http://www.w3.org/1999/xlink" contentStyleType="text/css" height="292px" preserveAspectRatio="none" style="width:723px;height:292px;background:#FFFFFF;" version="1.1" viewBox="0 0 723 292" width="723px" zoomAndPan="magnify"><defs/><g><text fill="#000000" font-family="sans-serif" font-size="14" font-weight="bold" lengthAdjust="spacing" textLength="90" x="309.5" y="22.9951">&#22270;&#20070;&#31649;&#29702;&#31995;&#32479;</text><g id="elem_PersonalManagement"><ellipse cx="461.8142" cy="59.0597" fill="#F1F1F1" rx="66.8142" ry="15.7628" style="stroke:#181818;stroke-width:0.5;"/><text fill="#000000" font-family="sans-serif" font-size="14" lengthAdjust="spacing" textLength="84" x="416.8142" y="62.8073">&#20010;&#20154;&#20449;&#24687;&#31649;&#29702;</text></g><g id="elem_BorrowOrReturn"><ellipse cx="461.8543" cy="130.5053" fill="#F1F1F1" rx="51.8543" ry="14.7084" style="stroke:#181818;stroke-width:0.5;"/><text fill="#000000" font-family="sans-serif" font-size="14" lengthAdjust="spacing" textLength="56" x="430.8543" y="134.2528">&#20511;&#38405;&#31649;&#29702;</text></g><g id="elem_RemainManagement"><ellipse cx="461.8543" cy="201.5053" fill="#F1F1F1" rx="51.8543" ry="14.7084" style="stroke:#181818;stroke-width:0.5;"/><text fill="#000000" font-family="sans-serif" font-size="14" lengthAdjust="spacing" textLength="56" x="430.8543" y="205.2528">&#24211;&#23384;&#31649;&#29702;</text></g><g id="elem_ClientManagement"><ellipse cx="462.0868" cy="272.1142" fill="#F1F1F1" rx="62.0868" ry="14.8174" style="stroke:#181818;stroke-width:0.5;"/><text fill="#000000" font-family="sans-serif" font-size="14" lengthAdjust="spacing" textLength="70" x="424.0868" y="275.8618">&#23458;&#25143;&#31471;&#31649;&#29702;</text></g><g id="elem_UsersManagement"><ellipse cx="221.8543" cy="77.5053" fill="#F1F1F1" rx="51.8543" ry="14.7084" style="stroke:#181818;stroke-width:0.5;"/><text fill="#000000" font-family="sans-serif" font-size="14" lengthAdjust="spacing" textLength="56" x="190.8543" y="81.2528">&#29992;&#25143;&#31649;&#29702;</text></g><g id="elem_DataManagement"><ellipse cx="221.8543" cy="253.5053" fill="#F1F1F1" rx="51.8543" ry="14.7084" style="stroke:#181818;stroke-width:0.5;"/><text fill="#000000" font-family="sans-serif" font-size="14" lengthAdjust="spacing" textLength="56" x="190.8543" y="257.2528">&#25968;&#25454;&#31649;&#29702;</text></g><g id="elem_RoleManagement"><ellipse cx="57.8543" cy="165.5053" fill="#F1F1F1" rx="51.8543" ry="14.7084" style="stroke:#181818;stroke-width:0.5;"/><text fill="#000000" font-family="sans-serif" font-size="14" lengthAdjust="spacing" textLength="56" x="26.8543" y="169.2528">&#35282;&#33394;&#31649;&#29702;</text></g><!--entity Admin??--><g id="elem_Admin&#26435;&#38480;"><ellipse cx="222" cy="135.7969" fill="#F1F1F1" rx="8" ry="8" style="stroke:#181818;stroke-width:0.5;"/><path d="M222,143.7969 L222,170.7969 M209,151.7969 L235,151.7969 M222,170.7969 L209,185.7969 M222,170.7969 L235,185.7969 " fill="none" style="stroke:#181818;stroke-width:0.5;"/><text fill="#000000" font-family="sans-serif" font-size="14" lengthAdjust="spacing" textLength="74" x="185" y="200.292">Admin&#26435;&#38480;</text></g><!--entity Users??--><g id="elem_Users&#26435;&#38480;"><ellipse cx="683" cy="136.7969" fill="#F1F1F1" rx="8" ry="8" style="stroke:#181818;stroke-width:0.5;"/><path d="M683,144.7969 L683,171.7969 M670,152.7969 L696,152.7969 M683,171.7969 L670,186.7969 M683,171.7969 L696,186.7969 " fill="none" style="stroke:#181818;stroke-width:0.5;"/><text fill="#000000" font-family="sans-serif" font-size="14" lengthAdjust="spacing" textLength="66" x="650" y="201.292">Users&#26435;&#38480;</text></g><!--link Admin?? to PersonalManagement--><g id="link_Admin&#26435;&#38480;_PersonalManagement"><path d="M259.147,149.1979 C305.571,128.5219 379.9111,95.412 423.9851,75.782 " fill="none" id="Admin&#26435;&#38480;-to-PersonalManagement" style="stroke:#181818;stroke-width:1.0;"/><polygon fill="#181818" points="429.466,73.3409,419.6171,73.3486,424.8985,75.3752,422.872,80.6566,429.466,73.3409" style="stroke:#181818;stroke-width:1.0;"/></g><!--link Admin?? to BorrowOrReturn--><g id="link_Admin&#26435;&#38480;_BorrowOrReturn"><path d="M259.147,159.9809 C301.02,153.8239 364.1258,144.5428 409.6018,137.8558 " fill="none" id="Admin&#26435;&#38480;-to-BorrowOrReturn" style="stroke:#181818;stroke-width:1.0;"/><polygon fill="#181818" points="415.538,136.9829,406.0518,134.3348,410.5912,137.7103,407.2157,142.2496,415.538,136.9829" style="stroke:#181818;stroke-width:1.0;"/></g><!--link Admin?? to RemainManagement--><g id="link_Admin&#26435;&#38480;_RemainManagement"><path d="M259.147,170.7649 C301.15,177.1179 364.5585,186.709 410.0285,193.5868 " fill="none" id="Admin&#26435;&#38480;-to-RemainManagement" style="stroke:#181818;stroke-width:1.0;"/><polygon fill="#181818" points="415.961,194.4842,407.6605,189.1831,411.0172,193.7364,406.464,197.0932,415.961,194.4842" style="stroke:#181818;stroke-width:1.0;"/></g><!--link Admin?? to ClientManagement--><g id="link_Admin&#26435;&#38480;_ClientManagement"><path d="M259.147,181.5479 C306.351,202.7699 382.6116,237.0552 426.1856,256.6451 " fill="none" id="Admin&#26435;&#38480;-to-ClientManagement" style="stroke:#181818;stroke-width:1.0;"/><polygon fill="#181818" points="431.658,259.1054,425.0896,251.7667,427.0977,257.0552,421.8092,259.0632,431.658,259.1054" style="stroke:#181818;stroke-width:1.0;"/></g><!--reverse link UsersManagement to Admin??--><g id="link_UsersManagement_Admin&#26435;&#38480;"><path d="M222,98.0939 C222,109.7759 222,115.4589 222,127.1409 " fill="none" id="UsersManagement-backto-Admin&#26435;&#38480;" style="stroke:#181818;stroke-width:1.0;"/><polygon fill="#181818" points="222,92.0939,218,101.0939,222,97.0939,226,101.0939,222,92.0939" style="stroke:#181818;stroke-width:1.0;"/></g><!--link Admin?? to DataManagement--><g id="link_Admin&#26435;&#38480;_DataManagement"><path d="M222,203.3363 C222,215.0628 222,220.7892 222,232.5157 " fill="none" id="Admin&#26435;&#38480;-to-DataManagement" style="stroke:#181818;stroke-width:1.0;"/><polygon fill="#181818" points="222,238.5157,226,229.5157,222,233.5157,218,229.5157,222,238.5157" style="stroke:#181818;stroke-width:1.0;"/></g><!--reverse link RoleManagement to Admin??--><g id="link_RoleManagement_Admin&#26435;&#38480;"><path d="M116.258,165.2969 C140.544,165.2969 162.974,165.2969 184.946,165.2969 " fill="none" id="RoleManagement-backto-Admin&#26435;&#38480;" style="stroke:#181818;stroke-width:1.0;"/><polygon fill="#181818" points="110.258,165.2969,119.258,169.2969,115.258,165.2969,119.258,161.2969,110.258,165.2969" style="stroke:#181818;stroke-width:1.0;"/></g><!--reverse link PersonalManagement to Users??--><g id="link_PersonalManagement_Users&#26435;&#38480;"><path d="M497.9259,76.3608 C538.9069,96.3838 607.352,129.8249 649.735,150.5329 " fill="none" id="PersonalManagement-backto-Users&#26435;&#38480;" style="stroke:#181818;stroke-width:1.0;"/><polygon fill="#181818" points="492.535,73.7269,498.8654,81.2718,497.0274,75.9219,502.3774,74.0839,492.535,73.7269" style="stroke:#181818;stroke-width:1.0;"/></g><!--reverse link BorrowOrReturn to Users??--><g id="link_BorrowOrReturn_Users&#26435;&#38480;"><path d="M512.9745,138.5121 C555.1935,145.4521 611.992,154.7889 649.746,160.9949 " fill="none" id="BorrowOrReturn-backto-Users&#26435;&#38480;" style="stroke:#181818;stroke-width:1.0;"/><polygon fill="#181818" points="507.054,137.5389,515.286,142.9457,511.9878,138.3499,516.5836,135.0517,507.054,137.5389" style="stroke:#181818;stroke-width:1.0;"/></g><!--reverse link RemainManagement to Users??--><g id="link_RemainManagement_Users&#26435;&#38480;"><path d="M513.5068,193.225 C555.7778,186.4693 612.326,177.4319 649.905,171.4259 " fill="none" id="RemainManagement-backto-Users&#26435;&#38480;" style="stroke:#181818;stroke-width:1.0;"/><polygon fill="#181818" points="507.582,194.1719,517.1005,196.7014,512.5193,193.3828,515.838,188.8017,507.582,194.1719" style="stroke:#181818;stroke-width:1.0;"/></g><!--reverse link ClientManagement to Users??--><g id="link_ClientManagement_Users&#26435;&#38480;"><path d="M496.1376,256.2579 C536.7666,236.5926 606.887,202.6528 649.875,181.8459 " fill="none" id="ClientManagement-backto-Users&#26435;&#38480;" style="stroke:#181818;stroke-width:1.0;"/><polygon fill="#181818" points="490.737,258.8719,500.5806,258.5513,495.2375,256.6935,497.0953,251.3504,490.737,258.8719" style="stroke:#181818;stroke-width:1.0;"/></g><!--SRC=[RT7DIWCn40VmUvuYn-t2le48Vbn5AVW0mSOQo2QIJUbL4KKFGl43AYAb7bGKrw87xHRqPNQJzYtStLwIJSxvPMR-CnJlIoWv5AHx86672Bmd2MT04aan3CFY_ZUVFkbqh0Td-ckcPwCm1238VrxpBCl_nkhuO_dOWYY1mGuM2MU8RY66kZZ6JBP0K1oD5iDJawrp8NX_MxInx0bMaUowU1-Qf8rZH9XT9trKvz_wpUguGKdvQZeGw9kN2XfgDoa7iugfsucwJ4spYIIooFpvQdxnQGt5ARPQhNLYmjJ3oU9k0ACeMlLlm5ND1RZ2pUyQJtOBqVAubNFIMwe-VSMQ2x1Kxx2Ugha0NrwuKeu7wwRBtw2ProESl1xZv7NCFm00]--></g></svg>