<?xml version="1.0" encoding="us-ascii" standalone="no"?><svg xmlns="http://www.w3.org/2000/svg" xmlns:xlink="http://www.w3.org/1999/xlink" contentStyleType="text/css" height="461px" preserveAspectRatio="none" style="width:948px;height:461px;background:#FFFFFF;" version="1.1" viewBox="0 0 948 461" width="948px" zoomAndPan="magnify"><defs/><g><text fill="#000000" font-family="sans-serif" font-size="14" font-weight="bold" lengthAdjust="spacing" textLength="60" x="442.5" y="32.9951">&#35774;&#32622;&#30028;&#38754;</text><ellipse cx="483" cy="57.2969" fill="#222222" rx="10" ry="10" style="stroke:#222222;stroke-width:1.0;"/><rect fill="#F1F1F1" height="33.9688" rx="12.5" ry="12.5" style="stroke:#181818;stroke-width:0.5;" width="92" x="437" y="87.2969"/><text fill="#000000" font-family="sans-serif" font-size="12" lengthAdjust="spacing" textLength="72" x="447" y="108.4355">&#25171;&#24320;&#35774;&#32622;&#30028;&#38754;</text><line style="stroke:#181818;stroke-width:1.5;" x1="141" x2="843" y1="141.2656" y2="141.2656"/><rect fill="#F1F1F1" height="33.9688" rx="12.5" ry="12.5" style="stroke:#181818;stroke-width:0.5;" width="104" x="89" y="175.1836"/><text fill="#000000" font-family="sans-serif" font-size="12" lengthAdjust="spacing" textLength="84" x="99" y="196.3223">&#30028;&#38754;&#36879;&#26126;&#24230;&#35774;&#32622;</text><rect fill="#F1F1F1" height="33.9688" rx="12.5" ry="12.5" style="stroke:#181818;stroke-width:0.5;" width="128" x="77" y="244.1523"/><text fill="#000000" font-family="sans-serif" font-size="12" lengthAdjust="spacing" textLength="108" x="87" y="265.291">&#25171;&#24320;&#33719;&#24471;&#28369;&#21160;&#26465;&#25968;&#20540;</text><rect fill="#F1F1F1" height="33.9688" rx="12.5" ry="12.5" style="stroke:#181818;stroke-width:0.5;" width="260" x="11" y="313.1211"/><text fill="#000000" font-family="sans-serif" font-size="12" lengthAdjust="spacing" textLength="240" x="21" y="334.2598">&#21457;&#36865;&#20449;&#21495;&#32473;&#20027;&#30028;&#38754;&#65292;&#35843;&#29992;&#30456;&#20851;&#20989;&#25968;&#35774;&#32622;&#36879;&#26126;&#24230;</text><ellipse cx="141" cy="393.0898" fill="none" rx="11" ry="11" style="stroke:#222222;stroke-width:1.0;"/><ellipse cx="141" cy="393.0898" fill="#222222" rx="6" ry="6" style="stroke:#222222;stroke-width:1.0;"/><rect fill="#F1F1F1" height="33.9688" rx="12.5" ry="12.5" style="stroke:#181818;stroke-width:0.5;" width="68" x="371" y="209.668"/><text fill="#000000" font-family="sans-serif" font-size="12" lengthAdjust="spacing" textLength="48" x="381" y="230.8066">&#37325;&#36733;&#25968;&#25454;</text><rect fill="#F1F1F1" height="33.9688" rx="12.5" ry="12.5" style="stroke:#181818;stroke-width:0.5;" width="248" x="281" y="278.6367"/><text fill="#000000" font-family="sans-serif" font-size="12" lengthAdjust="spacing" textLength="228" x="291" y="299.7754">&#21024;&#38500;&#20070;&#26412;&#34920;&#65292;&#24182;&#37325;&#26032;&#35835;&#21462;&#25991;&#20214;&#21021;&#22987;&#21270;&#21644;&#22238;&#26174;</text><ellipse cx="405" cy="358.6055" fill="none" rx="11" ry="11" style="stroke:#222222;stroke-width:1.0;"/><ellipse cx="405" cy="358.6055" fill="#222222" rx="6" ry="6" style="stroke:#222222;stroke-width:1.0;"/><rect fill="#F1F1F1" height="33.9688" rx="12.5" ry="12.5" style="stroke:#181818;stroke-width:0.5;" width="68" x="605" y="168.1992"/><text fill="#000000" font-family="sans-serif" font-size="12" lengthAdjust="spacing" textLength="48" x="615" y="189.3379">&#20445;&#23384;&#25968;&#25454;</text><rect fill="#F1F1F1" height="33.9688" rx="12.5" ry="12.5" style="stroke:#181818;stroke-width:0.5;" width="92" x="593" y="237.168"/><text fill="#000000" font-family="sans-serif" font-size="12" lengthAdjust="spacing" textLength="72" x="603" y="258.3066">&#24377;&#20986;&#30446;&#24405;&#36873;&#25321;</text><rect fill="#F1F1F1" height="47.9375" rx="12.5" ry="12.5" style="stroke:#181818;stroke-width:0.5;" width="200" x="539" y="306.1367"/><text fill="#000000" font-family="sans-serif" font-size="12" lengthAdjust="spacing" textLength="60" x="549" y="327.2754">&#20351;&#29992;&#30456;&#20851;&#24211;</text><text fill="#000000" font-family="sans-serif" font-size="12" lengthAdjust="spacing" textLength="180" x="549" y="341.2441">&#25353;&#29031;&#25351;&#23450;&#25968;&#25454;&#31867;&#22411;&#20648;&#23384;&#21040;&#25351;&#23450;&#20301;&#32622;</text><ellipse cx="639" cy="400.0742" fill="none" rx="11" ry="11" style="stroke:#222222;stroke-width:1.0;"/><ellipse cx="639" cy="400.0742" fill="#222222" rx="6" ry="6" style="stroke:#222222;stroke-width:1.0;"/><rect fill="#F1F1F1" height="33.9688" rx="12.5" ry="12.5" style="stroke:#181818;stroke-width:0.5;" width="188" x="749" y="161.2656"/><text fill="#000000" font-family="sans-serif" font-size="12" lengthAdjust="spacing" textLength="168" x="759" y="182.4043">&#21024;&#38500;&#25152;&#26377;&#25968;&#25454;&#65288;&#38656;&#35201;&#25163;&#21160;&#20445;&#23384;&#65289;</text><rect fill="#F1F1F1" height="33.9688" rx="12.5" ry="12.5" style="stroke:#181818;stroke-width:0.5;" width="117" x="784.5" y="278.6367"/><text fill="#000000" font-family="sans-serif" font-size="12" lengthAdjust="spacing" textLength="97" x="794.5" y="299.7754">&#36941;&#21382;&#38142;&#34920;&#36880;&#19968;free</text><polygon fill="#F1F1F1" points="821,230.2344,865,230.2344,877,242.2344,865,254.2344,821,254.2344,809,242.2344,821,230.2344" style="stroke:#181818;stroke-width:0.5;"/><text fill="#000000" font-family="sans-serif" font-size="11" lengthAdjust="spacing" textLength="21" x="847" y="264.4448">yes</text><text fill="#000000" font-family="sans-serif" font-size="11" lengthAdjust="spacing" textLength="44" x="821" y="246.0425">&#35810;&#38382;&#20004;&#27425;</text><text fill="#000000" font-family="sans-serif" font-size="11" lengthAdjust="spacing" textLength="18" x="877" y="239.6401">not</text><polygon fill="#F1F1F1" points="843,337.0078,855,349.0078,843,361.0078,831,349.0078,843,337.0078" style="stroke:#181818;stroke-width:0.5;"/><ellipse cx="843" cy="407.0078" fill="none" rx="11" ry="11" style="stroke:#222222;stroke-width:1.0;"/><ellipse cx="843" cy="407.0078" fill="#222222" rx="6" ry="6" style="stroke:#222222;stroke-width:1.0;"/><ellipse cx="483" cy="439.0078" fill="none" rx="11" ry="11" style="stroke:#222222;stroke-width:1.0;"/><ellipse cx="483" cy="439.0078" fill="#222222" rx="6" ry="6" style="stroke:#222222;stroke-width:1.0;"/><line style="stroke:#181818;stroke-width:1.0;" x1="483" x2="483" y1="67.2969" y2="87.2969"/><polygon fill="#181818" points="479,77.2969,483,87.2969,487,77.2969,483,81.2969" style="stroke:#181818;stroke-width:1.0;"/><line style="stroke:#181818;stroke-width:1.0;" x1="141" x2="141" y1="209.1523" y2="244.1523"/><polygon fill="#181818" points="137,234.1523,141,244.1523,145,234.1523,141,238.1523" style="stroke:#181818;stroke-width:1.0;"/><line style="stroke:#181818;stroke-width:1.0;" x1="141" x2="141" y1="278.1211" y2="313.1211"/><polygon fill="#181818" points="137,303.1211,141,313.1211,145,303.1211,141,307.1211" style="stroke:#181818;stroke-width:1.0;"/><line style="stroke:#181818;stroke-width:1.0;" x1="141" x2="141" y1="347.0898" y2="382.0898"/><polygon fill="#181818" points="137,372.0898,141,382.0898,145,372.0898,141,376.0898" style="stroke:#181818;stroke-width:1.0;"/><line style="stroke:#181818;stroke-width:1.0;" x1="405" x2="405" y1="243.6367" y2="278.6367"/><polygon fill="#181818" points="401,268.6367,405,278.6367,409,268.6367,405,272.6367" style="stroke:#181818;stroke-width:1.0;"/><line style="stroke:#181818;stroke-width:1.0;" x1="405" x2="405" y1="312.6055" y2="347.6055"/><polygon fill="#181818" points="401,337.6055,405,347.6055,409,337.6055,405,341.6055" style="stroke:#181818;stroke-width:1.0;"/><line style="stroke:#181818;stroke-width:1.0;" x1="639" x2="639" y1="202.168" y2="237.168"/><polygon fill="#181818" points="635,227.168,639,237.168,643,227.168,639,231.168" style="stroke:#181818;stroke-width:1.0;"/><line style="stroke:#181818;stroke-width:1.0;" x1="639" x2="639" y1="271.1367" y2="306.1367"/><polygon fill="#181818" points="635,296.1367,639,306.1367,643,296.1367,639,300.1367" style="stroke:#181818;stroke-width:1.0;"/><line style="stroke:#181818;stroke-width:1.0;" x1="639" x2="639" y1="354.0742" y2="389.0742"/><polygon fill="#181818" points="635,379.0742,639,389.0742,643,379.0742,639,383.0742" style="stroke:#181818;stroke-width:1.0;"/><line style="stroke:#181818;stroke-width:1.0;" x1="843" x2="843" y1="254.2344" y2="278.6367"/><polygon fill="#181818" points="839,268.6367,843,278.6367,847,268.6367,843,272.6367" style="stroke:#181818;stroke-width:1.0;"/><line style="stroke:#181818;stroke-width:1.0;" x1="877" x2="911.5" y1="242.2344" y2="242.2344"/><polygon fill="#181818" points="907.5,285.6211,911.5,295.6211,915.5,285.6211,911.5,289.6211" style="stroke:#181818;stroke-width:1.0;"/><line style="stroke:#181818;stroke-width:1.0;" x1="911.5" x2="911.5" y1="242.2344" y2="349.0078"/><line style="stroke:#181818;stroke-width:1.0;" x1="911.5" x2="855" y1="349.0078" y2="349.0078"/><polygon fill="#181818" points="865,345.0078,855,349.0078,865,353.0078,861,349.0078" style="stroke:#181818;stroke-width:1.0;"/><line style="stroke:#181818;stroke-width:1.0;" x1="843" x2="843" y1="312.6055" y2="337.0078"/><polygon fill="#181818" points="839,327.0078,843,337.0078,847,327.0078,843,331.0078" style="stroke:#181818;stroke-width:1.0;"/><line style="stroke:#181818;stroke-width:1.0;" x1="843" x2="843" y1="195.2344" y2="230.2344"/><polygon fill="#181818" points="839,220.2344,843,230.2344,847,220.2344,843,224.2344" style="stroke:#181818;stroke-width:1.0;"/><line style="stroke:#181818;stroke-width:1.0;" x1="843" x2="843" y1="361.0078" y2="396.0078"/><polygon fill="#181818" points="839,386.0078,843,396.0078,847,386.0078,843,390.0078" style="stroke:#181818;stroke-width:1.0;"/><line style="stroke:#181818;stroke-width:1.0;" x1="141" x2="141" y1="142.7656" y2="175.1836"/><polygon fill="#181818" points="137,165.1836,141,175.1836,145,165.1836,141,169.1836" style="stroke:#181818;stroke-width:1.0;"/><line style="stroke:#181818;stroke-width:1.0;" x1="405" x2="405" y1="142.7656" y2="209.668"/><polygon fill="#181818" points="401,199.668,405,209.668,409,199.668,405,203.668" style="stroke:#181818;stroke-width:1.0;"/><line style="stroke:#181818;stroke-width:1.0;" x1="639" x2="639" y1="142.7656" y2="168.1992"/><polygon fill="#181818" points="635,158.1992,639,168.1992,643,158.1992,639,162.1992" style="stroke:#181818;stroke-width:1.0;"/><line style="stroke:#181818;stroke-width:1.0;" x1="843" x2="843" y1="142.7656" y2="161.2656"/><polygon fill="#181818" points="839,151.2656,843,161.2656,847,151.2656,843,155.2656" style="stroke:#181818;stroke-width:1.0;"/><line style="stroke:#181818;stroke-width:1.0;" x1="483" x2="483" y1="121.2656" y2="141.2656"/><polygon fill="#181818" points="479,131.2656,483,141.2656,487,131.2656,483,135.2656" style="stroke:#181818;stroke-width:1.0;"/><!--SRC=[VLBBJi9G4DttAxf4FW6_XiIYJGWGsesxYqPBfO288CWZGWnWWgN6X5TR-9axqzuLls1ry9KOxsxcd3ddpEJggfvMv7Wyj3U1RmSDI_I6yRWaQNeohqi9DElWiP_WeQJbqgekoT5BK4kmAhOgi1uHxv2m_MXb0PixT6jmDS7U01iEC6_FW6fDi0BV3g2w2DmsNxgaj_Eiq3aFRYT1PmaNhs3uqHXfVrcHXAPdSvH7JXudrGpf2gCS-kypMFuC0yK7qNxagn5sf-5W4Zd0QXxniEc4CnUgJMmQt9r3iGVZ4bXDkB6WqyVMvZyVlkt1S-ktZxS2OnrqRF0RWfbOUje3tDz-BxIkVpJHCeEBCLe6sFUa4houq2_1sIJIXQ934FVBNrVzEmXjXoR3hab2EwyekYmS5T0iHPUdf3lF91Kr5GjdGt5dy-KZJWS7idwYP6AdYdRm0TCH2sMeN8hw9ZgNODTyoL9vHQ5v9QqfiKnM9xgIEL9Jt-cYKgOlybw-0G00]--></g></svg>